HIERARCHY
ROOT SpineBase
{
  OFFSET 0.000000 0.000000 0.000000
  CHANNELS 6 Xposition Yposition Zposition Zrotation Xrotation Yrotation
  JOINT SpineMid
  {
    OFFSET -0.000000 34.912420 0.000000
    CHANNELS 3 Zrotation Xrotation Yrotation
    JOINT SpineShoulder
    {
      OFFSET -0.981661 26.063587 -0.892506
      CHANNELS 3 Zrotation Xrotation Yrotation
      JOINT Neck
      {
        OFFSET -0.341632 8.541577 -0.696079
        CHANNELS 3 Zrotation Xrotation Yrotation
        JOINT Head
        {
          OFFSET -4.105744 11.547505 5.164085
          CHANNELS 3 Zrotation Xrotation Yrotation
          End Site
          {
            OFFSET 0 0 0
          }
        }
      }
      JOINT ShoulderLeft
      {
        OFFSET -11.158116 -7.915770 -18.401700
        CHANNELS 3 Zrotation Xrotation Yrotation
        JOINT ElbowLeft
        {
          OFFSET -0.241095 -22.736591 -6.116540
          CHANNELS 3 Zrotation Xrotation Yrotation
          JOINT WristLeft
          {
            OFFSET -2.311407 -14.077457 17.097724
            CHANNELS 3 Zrotation Xrotation Yrotation
            JOINT HandLeft
            {
              OFFSET 3.902426 -2.500110 3.918327
              CHANNELS 3 Zrotation Xrotation Yrotation
              JOINT HandTipLeft
              {
                OFFSET -1.124308 -4.193860 2.385182
                CHANNELS 3 Zrotation Xrotation Yrotation
                End Site
                {
                  OFFSET 0 0 0
                }
              }
              JOINT ThumbLeft
              {
                OFFSET 0.536961 2.970637 -2.494362
                CHANNELS 3 Zrotation Xrotation Yrotation
                End Site
                {
                  OFFSET 0 0 0
                }
              }
            }
          }
        }
      }
      JOINT ShoulderRight
      {
        OFFSET 2.749474 -6.383327 -15.109396
        CHANNELS 3 Zrotation Xrotation Yrotation
        JOINT ElbowRight
        {
          OFFSET -4.646630 -27.073277 -3.783755
          CHANNELS 3 Zrotation Xrotation Yrotation
          JOINT WristRight
          {
            OFFSET -5.605832 -20.011007 4.372524
            CHANNELS 3 Zrotation Xrotation Yrotation
            JOINT HandRight
            {
              OFFSET 0.705823 -6.152974 3.550316
              CHANNELS 3 Zrotation Xrotation Yrotation
              JOINT HandTipRight
              {
                OFFSET -1.565147 -7.960663 2.597897
                CHANNELS 3 Zrotation Xrotation Yrotation
                End Site
                {
                  OFFSET 0 0 0
                }
              }
              JOINT ThumbRight
              {
                OFFSET -4.897950 -0.370479 -2.367613
                CHANNELS 3 Zrotation Xrotation Yrotation
                End Site
                {
                  OFFSET 0 0 0
                }
              }
            }
          }
        }
      }
    }
  }
  JOINT HipLeft
  {
    OFFSET -6.709136 0.081946 0.780696
    CHANNELS 3 Zrotation Xrotation Yrotation
    JOINT KneeLeft
    {
      OFFSET 2.491760 -34.191484 20.396412
      CHANNELS 3 Zrotation Xrotation Yrotation
      JOINT AnkleLeft
      {
        OFFSET 0.388055 -29.461739 5.707515
        CHANNELS 3 Zrotation Xrotation Yrotation
        JOINT FootLeft
        {
          OFFSET -7.774245 -3.311385 -0.168391
          CHANNELS 3 Zrotation Xrotation Yrotation
          End Site
          {
            OFFSET 0 0 0
          }
        }
      }
    }
  }
  JOINT HipRight
  {
    OFFSET 6.268833 0.384709 -8.529253
    CHANNELS 3 Zrotation Xrotation Yrotation
    JOINT KneeRight
    {
      OFFSET -5.010144 -29.744845 4.232861
      CHANNELS 3 Zrotation Xrotation Yrotation
      JOINT AnkleRight
      {
        OFFSET 7.718589 -34.459152 6.336900
        CHANNELS 3 Zrotation Xrotation Yrotation
        JOINT FootRight
        {
          OFFSET -3.533700 -8.100663 -4.779467
          CHANNELS 3 Zrotation Xrotation Yrotation
          End Site
          {
            OFFSET 0 0 0
          }
        }
      }
    }
  }
}
MOTION
Frames: 7
Frame Time: 0.033333
10.293455 70.291066 358.271270 6.566840 -13.567436 45.548774 -0.910771 1.154127 -44.928796 0.045426 0.457773 0.200719 5.786484 10.825349 -6.945513 0.000000 0.000000 0.000000 27.508549 3.348056 -13.210075 -32.589323 5.460944 11.272431 -85.236163 61.644840 -1.400231 56.312426 -10.126584 35.184296 0.000000 0.000000 0.000000 0.000000 0.000000 0.000000 -2.069120 19.286176 -1.660593 -56.659958 -43.889249 -21.444853 41.976992 -42.064516 -19.883439 -38.005334 -16.568335 31.396572 0.000000 0.000000 0.000000 0.000000 0.000000 0.000000 -6.775534 26.221300 -51.147232 29.464731 1.969218 11.702013 -7.082191 0.178084 2.793996 0.000000 0.000000 0.000000 28.806217 26.750699 -57.542032 0.615872 -27.663203 4.821563 2.705686 0.137847 -2.826990 0.000000 0.000000 0.000000
10.027172 69.325417 361.685931 9.032785 -15.466858 51.317993 -0.696818 1.224155 -50.233719 0.209206 0.593782 0.287784 1.904539 10.658385 -6.737929 0.000000 0.000000 0.000000 23.465966 3.226281 -12.780090 -31.562188 7.777342 11.462315 -108.104207 64.485357 18.355239 67.016924 -14.886873 37.479857 0.000000 0.000000 0.000000 0.000000 0.000000 0.000000 7.229230 23.022926 -7.426291 -67.637149 -45.143098 -22.745265 24.340564 -44.468119 -28.848194 -24.828882 0.147305 31.758983 0.000000 0.000000 0.000000 0.000000 0.000000 0.000000 -9.121324 31.889311 -57.170871 32.354037 2.142475 13.154156 -7.083741 -1.272482 14.810445 0.000000 0.000000 0.000000 36.239341 29.236116 -67.597828 3.226243 -31.424880 7.333537 2.634073 -0.674283 -3.823195 0.000000 0.000000 0.000000
9.801822 68.386144 365.671839 11.492841 -17.703499 57.531479 -0.451296 1.466659 -55.869154 0.215652 0.488049 0.377025 -0.861343 11.560647 -6.758153 0.000000 0.000000 0.000000 19.076744 3.783553 -12.131116 -29.856437 9.834827 11.191811 -124.584821 66.230234 29.127003 75.090087 -10.670198 45.304824 0.000000 0.000000 0.000000 0.000000 0.000000 0.000000 20.210077 25.970648 -15.983238 -88.709816 -47.441014 -30.254670 4.563395 -31.669847 -39.160288 -2.601071 6.029337 26.903321 0.000000 0.000000 0.000000 0.000000 0.000000 0.000000 -9.473984 39.231064 -63.754137 34.943235 0.897424 14.832323 -7.110789 3.252374 12.385047 0.000000 0.000000 0.000000 45.904144 31.185028 -79.491600 8.082155 -35.665534 11.464906 -0.397099 0.193084 -4.047947 0.000000 0.000000 0.000000
8.878673 67.373765 370.273070 13.536543 -19.284360 62.025618 -0.239687 1.804408 -59.824289 0.336776 0.532108 0.430005 -0.586639 11.855145 -8.384393 0.000000 0.000000 0.000000 14.267908 4.170007 -10.765011 -27.230473 11.264581 10.269323 -132.948479 64.688647 37.197951 93.814433 -18.067157 52.501654 0.000000 0.000000 0.000000 0.000000 0.000000 0.000000 32.062621 24.822890 -23.384305 -99.964568 -49.059385 -31.110835 -11.327126 -15.514281 -38.993335 16.640328 -1.582756 22.650367 0.000000 0.000000 0.000000 0.000000 0.000000 0.000000 -10.038723 45.922909 -68.534036 38.962575 0.385124 16.460080 -0.167807 7.895186 8.441764 0.000000 0.000000 0.000000 55.300050 31.532259 -89.532711 12.719029 -38.838216 16.153925 -7.836386 2.004139 -2.565528 0.000000 0.000000 0.000000
7.080031 66.179561 376.310483 15.269210 -20.850246 63.499598 -0.442431 1.702835 -60.747384 -0.159354 0.242528 0.558059 0.036757 13.547610 -9.689367 0.000000 0.000000 0.000000 13.990221 5.452366 -11.549001 -28.697257 10.066166 10.067663 -136.960965 57.544469 48.613216 106.042194 -36.737716 51.398343 0.000000 0.000000 0.000000 0.000000 0.000000 0.000000 41.956656 22.514921 -29.372292 -102.136525 -46.710084 -25.648641 -20.205241 -7.781089 -36.131182 26.830161 -8.521010 20.793023 0.000000 0.000000 0.000000 0.000000 0.000000 0.000000 -10.309053 50.734338 -69.607082 40.751162 -0.990224 17.516221 0.512271 11.159444 4.891189 0.000000 0.000000 0.000000 65.157120 32.037257 -97.827067 16.293903 -41.042578 21.213686 -12.336815 2.278047 -3.541025 0.000000 0.000000 0.000000
4.987551 65.307191 382.316049 16.580165 -22.046104 61.218123 -0.421543 1.836479 -58.037109 -0.242287 0.350329 0.606700 0.353865 13.777739 -10.795134 0.000000 0.000000 0.000000 16.476346 7.137205 -13.824543 -31.990811 7.969217 10.773185 -131.531325 55.775759 48.351605 105.274590 -48.150882 47.551099 0.000000 0.000000 0.000000 0.000000 0.000000 0.000000 44.319945 18.171754 -29.047250 -90.470105 -39.966553 -12.122626 -35.597862 -6.574152 -38.239400 38.051033 -5.448115 20.031429 0.000000 0.000000 0.000000 0.000000 0.000000 0.000000 -13.599423 51.339978 -64.634207 39.134854 -0.291861 17.189874 -4.253230 11.596541 2.549751 0.000000 0.000000 0.000000 73.707695 34.057749 -103.818511 17.558838 -42.727208 24.956016 -15.148073 3.026493 -5.649585 0.000000 0.000000 0.000000
2.680080 65.049537 388.852510 17.633003 -22.999480 60.974621 0.064255 2.049358 -57.508535 -0.226671 -0.091674 0.689689 -0.019219 13.891372 -11.443949 0.000000 0.000000 0.000000 17.068458 7.687187 -14.878632 -33.651488 7.584886 11.264723 -116.150433 57.218527 36.957418 91.949204 -48.726198 40.449436 0.000000 0.000000 0.000000 0.000000 0.000000 0.000000 41.565454 14.035917 -25.282809 -78.645643 -26.992567 -1.557560 -44.593441 -2.403172 -38.208952 47.632369 -5.292038 20.756141 0.000000 0.000000 0.000000 0.000000 0.000000 0.000000 -9.035854 53.120850 -65.469446 37.373537 -2.299573 17.561850 -12.940747 12.539555 -1.652369 0.000000 0.000000 0.000000 79.123118 32.209761 -106.960063 13.326412 -42.841292 24.207360 -15.288425 3.114384 -8.426572 0.000000 0.000000 0.000000
